PathFileType	4	(X/Y/Z)	./resultDataOpenSim/trcMotMarkerGrf/sub06/qtm-02-06.trc
DataRate	CameraRate	NumFrames	NumMarkers	Units	OrigDataRate	OrigDataStartFrame	OrigNumFrames
250.000000	250.000000	7	24	m	250.000000	249	497
Frame#	Time	L.Toe.Tip			R.Toe.Tip			L.Ankle.Lat			R.Ankle.Lat			L.Ankle.Med			R.Ankle.Med			L.Heel			R.Heel			L.Knee.Lat			R.Knee.Lat			L.Knee.Med			R.Knee.Med			L.Thigh.Upper			R.Thigh.Upper			L.ASIS			R.ASIS			V.Sacral			L.Acromium			R.Acromium			C7			L.Elbow			R.Elbow			L.Wrist.Lat			R.Wrist.Lat
		X1	Y1	Z1	X2	Y2	Z2	X3	Y3	Z3	X4	Y4	Z4	X5	Y5	Z5	X6	Y6	Z6	X7	Y7	Z7	X8	Y8	Z8	X9	Y9	Z9	X10	Y10	Z10	X11	Y11	Z11	X12	Y12	Z12	X13	Y13	Z13	X14	Y14	Z14	X15	Y15	Z15	X16	Y16	Z16	X17	Y17	Z17	X18	Y18	Z18	X19	Y19	Z19	X20	Y20	Z20	X21	Y21	Z21	X22	Y22	Z22	X23	Y23	Z23	X24	Y24	Z24

249	0.992	0.070081483	0.009074346	-0.016154263	0.69126922	0.12845983	0.16593883	-0.046790942	0.059490418	-0.038016188	0.55784416	0.095061043	0.17901187	-0.041368194	0.075171876	0.048599214	0.57311635	0.1268983	0.094595554	-0.12368259	0.045434925	0.009960669	0.52520322	0.052286846	0.11384489	0.10319967	0.40064785	-0.061398457	0.43364422	0.46363618	0.18165099	0.090371865	0.40569436	0.059654764	0.42447783	0.44018194	0.052954053	0.1874626	0.77873133	-0.13110049	0.22409301	0.77238007	0.21480386	0.27324617	0.8238073	-0.096056565	0.30173318	0.83074329	0.14836126	0.096737018	0.89700408	0.056401802	0.23813901	1.3109494	-0.14468877	0.20605417	1.2917615	0.21667445	0.14674398	1.3392429	0.029157068	0.25813691	0.98497752	-0.21610833	0.058015246	1.0141812	0.26613593	0.49254012	0.90522279	-0.16190241	0.12368663	0.7919322	0.33430493
250	0.996	0.070049893	0.00904137	-0.016234268	0.70255236	0.13097337	0.16524281	-0.046240561	0.060211507	-0.038374316	0.56934255	0.095828395	0.17908101	-0.040614144	0.075812233	0.048281226	0.58401243	0.12739525	0.094280516	-0.12316669	0.04683209	0.0094448254	0.5372673	0.051958755	0.114208	0.10713517	0.39988964	-0.061495737	0.44064127	0.46249195	0.18084065	0.095081388	0.40437633	0.059298836	0.43073807	0.43829848	0.052059166	0.19275532	0.77752655	-0.13059387	0.23162317	0.77075004	0.2149363	0.27930597	0.82240821	-0.096005721	0.30909163	0.82947727	0.14854878	0.10296107	0.89611829	0.057709592	0.24449677	1.3096285	-0.14439108	0.21229725	1.2901844	0.21711189	0.153081	1.3379841	0.02951438	0.2660365	0.98366272	-0.21560226	0.064184801	1.012701	0.26648663	0.50066833	0.90564358	-0.16025273	0.1289159	0.79041398	0.3348672
251	1	0.070034524	0.0090169144	-0.016310028	0.71305327	0.13317383	0.16448247	-0.045625313	0.060972985	-0.038706704	0.57997634	0.096437008	0.17890262	-0.039881429	0.076506261	0.047991952	0.59428972	0.12773652	0.093756599	-0.12265289	0.048384683	0.0089565151	0.54860997	0.051512704	0.11423879	0.111218	0.39913657	-0.061619845	0.44776904	0.46155422	0.18006316	0.10000744	0.40306252	0.058907118	0.43696404	0.43657035	0.051304603	0.19812694	0.77630215	-0.1301106	0.23933679	0.76922641	0.21514859	0.28540187	0.82100701	-0.095965326	0.31650719	0.8282596	0.14873974	0.10923937	0.89519816	0.058980892	0.25085079	1.3083065	-0.14406637	0.2185803	1.288617	0.21758217	0.15947703	1.3367204	0.029846747	0.27393792	0.98235921	-0.21505493	0.070426128	1.0111999	0.26685495	0.50871813	0.90598785	-0.15861742	0.13422452	0.7888813	0.33543074
252	1.004	0.070036658	0.0089913887	-0.016368838	0.72282749	0.13497986	0.16363099	-0.044908161	0.061768371	-0.039015665	0.58981426	0.096827139	0.17847311	-0.039132503	0.07725965	0.047722707	0.60395188	0.12788195	0.093067897	-0.12211443	0.050066306	0.0085179862	0.5592226	0.050955503	0.11393932	0.11541855	0.39840537	-0.06176985	0.45501958	0.46075605	0.17938614	0.10491427	0.40184006	0.058601271	0.44322002	0.43503582	0.050701109	0.20358576	0.77506187	-0.12963555	0.24733683	0.76785072	0.21553178	0.2915195	0.8196192	-0.095952766	0.32399568	0.82708861	0.14893576	0.11563122	0.89427041	0.06016625	0.25719833	1.3069908	-0.1437121	0.22488938	1.287067	0.21807727	0.1658957	1.3354605	0.030196795	0.28184398	0.98107356	-0.21446712	0.076743249	1.0096822	0.26724487	0.51668945	0.90625444	-0.15701134	0.13974664	0.78735409	0.33604042
253	1.008	0.070054345	0.0089615627	-0.016408505	0.73194941	0.13628115	0.16267196	-0.044107917	0.06261701	-0.039289536	0.59895376	0.096943014	0.17781093	-0.038329855	0.078083636	0.047476257	0.61302652	0.12780043	0.092231895	-0.1215204	0.051851601	0.0081434489	0.56910791	0.050295497	0.11334623	0.11972155	0.39770802	-0.061916641	0.46237576	0.4600406	0.17885067	0.10978196	0.40075478	0.058375043	0.44956664	0.43372486	0.050236654	0.20914039	0.77381638	-0.12915587	0.25556636	0.76661813	0.21605484	0.29766108	0.81824923	-0.0959724	0.33153802	0.82594736	0.14911335	0.12213642	0.89335092	0.061246391	0.26353703	1.3056871	-0.14332773	0.23120616	1.2855424	0.21858531	0.17227834	1.3342129	0.030633874	0.28975978	0.97981391	-0.21384316	0.083113033	1.0081637	0.26768353	0.52458783	0.9064384	-0.15543716	0.14550572	0.7858389	0.33670835
254	1.012	0.070084773	0.0089314522	-0.016437562	0.74049115	0.13698336	0.16160231	-0.043246654	0.06354129	-0.039518601	0.60749512	0.09673869	0.17695239	-0.037447911	0.079003434	0.047266541	0.62154763	0.12747384	0.091267091	-0.1208509	0.05374109	0.0078412374	0.57827058	0.049534309	0.11251283	0.12412451	0.39705129	-0.062031864	0.46980689	0.45936184	0.17846814	0.11471869	0.39981622	0.058167994	0.45603443	0.43265088	0.04987743	0.21479711	0.77257828	-0.12866808	0.26385112	0.7654907	0.21660418	0.30384732	0.81689576	-0.096016162	0.33908348	0.82481222	0.14923116	0.12874613	0.89244576	0.062215648	0.26986443	1.3044002	-0.14291572	0.2375309	1.2840471	0.21910171	0.17858186	1.332987	0.031210723	0.29769226	0.9785878	-0.21319987	0.089480045	1.0066828	0.26822914	0.53242341	0.90653809	-0.15388199	0.15139977	0.78432458	0.33741092
255	1.016	0.070125097	0.0089049914	-0.016465892	0.74850906	0.1370402	0.16042873	-0.042326861	0.0645582	-0.03970794	0.61552177	0.096183639	0.17594065	-0.036464381	0.080041793	0.047098885	0.62952924	0.12688185	0.09022714	-0.12009961	0.05575058	0.0076219798	0.58671081	0.048669957	0.11148896	0.12862942	0.39643526	-0.062114224	0.47727129	0.4586853	0.17821459	0.11977981	0.39901047	0.05796853	0.46263476	0.43181936	0.049588334	0.22056037	0.77135474	-0.12817345	0.27210989	0.76445767	0.21713229	0.31009537	0.81556337	-0.096074218	0.34661258	0.82367101	0.14927164	0.13544731	0.89155657	0.063087049	0.27618266	1.303135	-0.14247883	0.2438817	1.2825846	0.21963337	0.18481487	1.3317894	0.031916691	0.30564421	0.97739503	-0.21257394	0.095806999	1.005276	0.26892108	0.5402003	0.90655697	-0.1523362	0.15731812	0.78280088	0.33812092
